<?xml version="1.0" encoding="UTF-8"?><svg id="Layer_2" xmlns="http://www.w3.org/2000/svg" viewBox="0 0 300 299.86"><defs><style>.cls-1{fill:#d3d3d3;}.cls-2{fill:#1c4746;}</style></defs><g id="Layer_1-2"><path class="cls-1" d="m142.45.02c46.46-.03,81.11,13.26,110.01,40.18,28.95,26.97,44.92,60.74,47.24,100.28,2.36,40.09-9.25,76.11-35.67,106.56-31.73,36.57-72.42,54.41-120.7,52.71-38.52-1.36-72.04-16.41-99.2-43.78C13.23,224.81-1.76,186.7.16,142.79c1.74-39.7,17.56-73.73,46.03-101.4C71.92,16.38,109.04-.61,142.45.02Z"/><path class="cls-2" d="m204.91,124.43h-29.41v-29.41c0-7.39-5.99-13.38-13.38-13.38h-24.24c-7.39,0-13.38,5.99-13.38,13.38v29.41h-29.41c-7.39,0-13.38,5.99-13.38,13.38v24.24c0,7.39,5.99,13.38,13.38,13.38h29.41v29.41c0,7.39,5.99,13.38,13.38,13.38h24.24c7.39,0,13.38-5.99,13.38-13.38v-29.41h29.41c7.39,0,13.38-5.99,13.38-13.38v-24.24c0-7.39-5.99-13.38-13.38-13.38Z"/></g></svg>