<?xml version="1.0" encoding="UTF-8"?><svg id="Layer_2" xmlns="http://www.w3.org/2000/svg" viewBox="0 0 300 300"><defs><style>.cls-1{fill:#fefefe;}.cls-2{fill:#1c4746;}</style></defs><g id="Layer_1-2"><circle class="cls-2" cx="150" cy="150" r="150"/><path class="cls-1" d="m122.38,184.17c13.84-12.27,26.91-24.18,40.35-35.67,11.56-9.88,23.55-19.24,35.32-28.88,6.19-5.07,12.14-10.46,18.49-15.32,5.7-4.36,11.31-3.86,14.93.66,4.58,5.73,4.9,12.75.11,17.04-12.1,10.84-24.45,21.39-36.71,32.05-9.53,8.29-19.06,16.59-28.63,24.83-14.28,12.29-28.56,24.57-42.94,36.74-2.39,2.02-4.91,2.67-7.54-.49-11.66-14.03-23.57-27.84-35.27-41.84-3.58-4.28-6.95-8.77-10.11-13.38-3.86-5.63-2.79-11.98,2.35-15.94,6.68-5.15,10.85-5.32,16.15.67,10.37,11.7,20.3,23.78,30.41,35.71,1.02,1.2,2,2.44,3.11,3.81Z"/></g></svg>