<?xml version="1.0" encoding="UTF-8"?><svg id="Layer_2" xmlns="http://www.w3.org/2000/svg" viewBox="0 0 300 299.86"><defs><style>.cls-1{fill:#d3d3d3;}.cls-2{fill:#1c4746;}</style></defs><g id="Layer_1-2"><path class="cls-1" d="m142.45.02c46.46-.03,81.11,13.26,110.01,40.18,28.95,26.97,44.92,60.74,47.24,100.28,2.36,40.09-9.25,76.11-35.67,106.56-31.73,36.57-72.42,54.41-120.7,52.71-38.52-1.36-72.04-16.41-99.2-43.78C13.23,224.81-1.76,186.7.16,142.79c1.74-39.7,17.56-73.73,46.03-101.4C71.92,16.38,109.04-.61,142.45.02Z"/><path class="cls-2" d="m88.65,149.71c0-18,.15-36.01-.08-54.01-.08-6.73,4.49-13.29,11.78-13.66,8.78-.45,17.61-.01,26.42.14,6.2.11,11.79,6.8,11.8,13.24.04,36.33.06,72.65,0,108.98-.01,7.61-6.87,13.95-13.91,13.82-7.88-.14-15.77.08-23.65-.13-7.26-.19-12.34-6.95-12.34-12.45.02-18.64,0-37.29,0-55.93h-.03Z"/><path class="cls-2" d="m211.4,149.89c0,17.69.02,35.37-.01,53.06-.01,5.66-2,10.44-7.18,13.24-1.91,1.04-4.21,1.85-6.35,1.9-8.2.18-16.4-.11-24.6,0-4.85.06-11.7-5.98-11.72-11.67-.05-13.53-.08-27.06-.09-40.59-.01-23.01.26-46.03-.13-69.03-.17-9.81,7.03-15.43,15.2-15.14,6.7.24,13.42-.03,20.13.07,8.35.12,14.65,5.61,14.71,14.79.11,17.79.03,35.58.03,53.38Z"/></g></svg>