<?xml version="1.0" encoding="UTF-8"?><svg id="Layer_2" xmlns="http://www.w3.org/2000/svg" viewBox="0 0 300 299.87"><defs><style>.cls-1{fill:#fff;}.cls-2{fill:#1c4746;}</style></defs><g id="Layer_1-2"><path class="cls-1" d="m139.52,0c49.35-.02,83.9,13.26,112.76,40.04,29.01,26.93,45.03,60.72,47.41,100.23,2.41,40.06-9.15,76.15-35.54,106.63-31.69,36.59-72.35,54.51-120.65,52.87-38.53-1.31-71.96-16.42-99.29-43.62C18.72,230.79,3.9,199.82.69,163.92c-3.91-43.75,8.93-82.32,38.42-114.96C68.53,16.39,105.65.72,139.52,0Z"/><path class="cls-2" d="m95.87,149.7c0-18.85-.29-37.7.13-56.54.2-8.9,9.46-17.55,18.82-18.38,8.75-.77,15.39,3.44,22.29,7.38,11.79,6.73,23.5,13.59,35.24,20.39,16.55,9.57,33.23,18.92,49.58,28.81,5.4,3.27,8.72,8.51,9.55,15.28,1.41,11.51-4.71,18.95-12.86,23.59-14.54,8.28-28.95,16.8-43.44,25.16-11.75,6.78-23.53,13.52-35.33,20.19-5.18,2.93-10.23,6.29-15.75,8.35-12.54,4.68-24.66-3.84-28.09-15.79-.63-2.18-.32-4.65-.32-6.99-.02-17.15-.01-34.29-.01-51.44.06,0,.13,0,.19,0Z"/></g></svg>