<?xml version="1.0" encoding="UTF-8"?><svg id="Layer_2" xmlns="http://www.w3.org/2000/svg" viewBox="0 0 300 299.86"><defs><style>.cls-1{fill:#fff;}.cls-2{fill:#1c4746;}</style></defs><g id="Layer_1-2"><path class="cls-1" d="m142.45.02c46.46-.03,81.11,13.26,110.01,40.18,28.95,26.97,44.92,60.74,47.24,100.28,2.36,40.09-9.25,76.11-35.67,106.56-31.73,36.57-72.42,54.41-120.7,52.71-38.52-1.36-72.04-16.41-99.2-43.78C13.23,224.81-1.76,186.7.16,142.79c1.74-39.7,17.56-73.73,46.03-101.4C71.92,16.38,109.04-.61,142.45.02Z"/><path class="cls-2" d="m153.62,237.22c1.37-.24,2.74-.55,4.12-.71,6.24-.69,12.2-2.46,18.01-4.75,7.44-2.93,14.25-7.03,20.44-12.05,10.19-8.27,18.02-18.48,23.38-30.46,2.81-6.27,4.85-12.87,5.66-19.71.62-5.17,1-10.44.68-15.62-.56-9.27-2.66-18.25-6.45-26.82-2.98-6.72-6.75-12.94-11.37-18.6-4.33-5.3-9.33-9.95-14.91-13.96-6.67-4.8-13.9-8.42-21.71-10.91-4.78-1.52-9.63-2.73-14.66-3.14-3.15-.26-6.29-.58-9.59-.89,0-5.56-.02-11.16,0-16.77.02-3.25-2.79-5.72-5.98-5.26-1.81.26-3.1.97-4.32,2.18-10.92,10.94-21.82,21.9-32.81,32.77-1.98,1.96-2.66,5.55-.09,8.12,11.1,11.09,22.18,22.2,33.3,33.28,2.82,2.81,6.09,2.88,8.51.11.75-.86,1.28-2.2,1.31-3.34.13-5.67.06-11.34.06-17.2,2.93.3,5.73.43,8.46.9,7.35,1.27,13.95,4.34,19.72,9,4.2,3.39,7.77,7.43,10.53,12.12,2.63,4.48,4.56,9.26,5.5,14.35.81,4.35,1.09,8.75.57,13.24-.66,5.71-2.06,11.13-4.71,16.19-3.31,6.3-7.81,11.59-13.62,15.79-5.26,3.8-11.05,6.32-17.37,7.59-5.35,1.07-10.72,1.08-16.15.18-4.75-.79-9.26-2.19-13.46-4.43-5.29-2.82-9.9-6.52-13.81-11.16-3.69-4.39-6.47-9.22-8.17-14.64-1.01-3.22-1.58-6.58-2.38-9.87-.7-2.87-2.53-4.22-5.8-4.24-7.09-.03-14.17-.04-21.26,0-2.75.02-5.13.97-6.04,3.82-.39,1.22-.43,2.65-.27,3.94,1,7.84,2.69,15.49,5.9,22.79,2.51,5.71,5.48,11.11,9.19,16.09,3.77,5.06,8.03,9.61,12.93,13.67,4.6,3.82,9.5,7.16,14.76,9.81,4.7,2.38,9.79,4.08,14.82,5.69,3.65,1.17,7.5,1.72,11.27,2.5,1.03.21,2.1.25,3.15.37h12.65Z"/></g></svg>