<?xml version="1.0" encoding="UTF-8"?><svg id="Layer_2" xmlns="http://www.w3.org/2000/svg" viewBox="0 0 300 300"><defs><style>.cls-1{fill:#ddd;}</style></defs><g id="Layer_1-2"><path class="cls-1" d="m150,23c33.92,0,65.82,13.21,89.8,37.2,23.99,23.99,37.2,55.88,37.2,89.8s-13.21,65.82-37.2,89.8c-23.99,23.99-55.88,37.2-89.8,37.2s-65.82-13.21-89.8-37.2c-23.99-23.99-37.2-55.88-37.2-89.8s13.21-65.82,37.2-89.8c23.99-23.99,55.88-37.2,89.8-37.2m0-23C67.16,0,0,67.16,0,150s67.16,150,150,150,150-67.16,150-150S232.84,0,150,0h0Z"/></g></svg>